
<svg width="23" height="16" viewBox="0 0 23 16" fill="#ffffff" xmlns="http://www.w3.org/2000/svg">
                            <path d="M14.6646 0L14.375 0.281461C17.6637 1.2341 19.2356 2.74966 19.2356 2.74966C16.4227 1.3207 13.7752 0.822733 11.4793 0.801083C9.18345 0.822733 6.53597 1.34235 3.72302 2.74966C3.72302 2.74966 5.31565 1.25575 8.58363 0.281461L8.29406 0C7.83903 0 5.43975 0.0866034 2.875 2.01353C2.875 2.01353 0 7.05819 0 13.2503C0.103417 13.1204 1.77878 15.9134 6.1223 16C6.1223 16 6.84622 15.1556 7.38399 14.3978C4.86061 13.6401 3.90917 12.1461 3.90917 12.1461C6.53597 13.8566 8.9973 14.5061 11.5 14.4195C14.0027 14.5061 16.464 13.8566 19.0908 12.1461C19.0908 12.1461 18.1394 13.6401 15.616 14.3978C16.1331 15.1556 16.8777 16 16.8777 16C21.2212 15.8917 22.8966 13.1204 23 13.2503C23 7.05819 20.125 2.01353 20.125 2.01353C17.5189 0.0866034 15.1403 0 14.6646 0ZM7.94245 11.3018C6.82554 11.3018 5.93615 10.3491 5.93615 9.15832C5.93615 7.98917 6.82554 7.01488 7.94245 7.01488C9.03867 7.01488 9.94874 7.96752 9.94874 9.15832C9.94874 10.3491 9.05935 11.3018 7.94245 11.3018ZM15.0162 11.3018C13.8993 11.3018 13.0099 10.3491 13.0099 9.17997C13.0099 8.01083 13.92 7.03654 15.0162 7.03654C16.1331 7.03654 17.0225 7.98917 17.0225 9.17997C17.0225 10.3491 16.1331 11.3018 15.0162 11.3018Z"></path>
                        </svg>